<svg fill="#0eb582" height="512pt" viewBox="-38 0 512 512" width="512pt" xmlns="http://www.w3.org/2000/svg"><path d="M231.008 424.36c0-31.516 12.273-61.15 34.558-83.434 22.286-22.285 51.918-34.559 83.434-34.559 4.008 0 7.98.2 11.914.59-11.617-53.559-53.332-96.023-106.492-108.707 24.457-20.629 40.02-51.477 40.02-85.895C294.441 50.402 244.038 0 182.09 0 120.137 0 69.734 50.402 69.734 112.352c0 34.421 15.567 65.27 40.02 85.894C46.887 213.246 0 269.886 0 337.277v111.45h233.52a119.064 119.064 0 01-2.512-24.368zm0 0"/><path d="M261.36 424.36c0 48.402 39.238 87.64 87.64 87.64s87.64-39.238 87.64-87.64-39.238-87.641-87.64-87.641-87.64 39.238-87.64 87.64zm134.222-15.176v30.351h-31.406v31.402h-30.352v-31.402h-31.402v-30.351h31.402v-31.407h30.352v31.407zm0 0"/></svg>