<svg xmlns="http://www.w3.org/2000/svg" viewBox="0 0 25.08 25.03" width="25.08" height="25.08" fill="#fff"><path d="M25.08 10.77v1.76c-.06.02-.05.08-.05.12-.34 3.13-1.76 5.69-4.2 7.64-3.46 2.76-7.38 3.5-11.66 2.49-.17-.03-.3-.02-.44.06l-3.81 2.1c-.25.14-.25.13-.25-.16v-3.92c0-.15-.03-.26-.16-.35-.45-.33-.86-.7-1.25-1.1-2.4-2.51-3.55-5.48-3.2-8.96.32-3.08 1.77-5.59 4.16-7.53C7.09.59 10.4-.31 14.05.09c2.78.3 5.22 1.37 7.29 3.26 1.95 1.79 3.18 3.98 3.6 6.61.05.27.05.55.14.81zM4.47 15.51c.12.04.2-.05.29-.1 1.87-1.02 3.74-2.04 5.6-3.07.19-.1.29-.07.42.08.54.59 1.09 1.17 1.64 1.75l1.37 1.46c2.23-2.36 4.44-4.72 6.68-7.09-.16-.04-.22.03-.29.07-1.81 1-3.63 2-5.43 3.01-.19.11-.29.1-.44-.06-.94-1-1.89-1.98-2.84-2.97-.23-.24-.23-.24-.46 0-2.2 2.31-4.37 4.61-6.54 6.92z"/></svg>