<svg xmlns="http://www.w3.org/2000/svg" viewBox="0 0 447.243 447.243"><path d="M437.883 201.174l-.025-.025-160-160c-12.552-12.441-32.813-12.351-45.254.201a32.1 32.1 0 00-2.746 3.159c-8.971 13.381-7.013 31.276 4.64 42.4l88.32 88.64a64.002 64.002 0 0016 11.68l9.76 5.12h-314.4c-16.099-.677-30.349 10.332-33.76 26.08-2.829 17.445 9.019 33.881 26.465 36.71 1.83.297 3.682.434 5.535.41h315.52l-6.88 3.2a64.004 64.004 0 00-18.08 12.64l-88.48 88.48c-11.653 11.124-13.611 29.019-4.64 42.4 10.441 14.259 30.464 17.355 44.724 6.914a32.018 32.018 0 003.276-2.754l160-160c12.503-12.49 12.514-32.751.025-45.255z"/></svg>