<svg xmlns="http://www.w3.org/2000/svg" width="27.08" height="25.01" fill="#fff"><path d="M3.65 8.93s.65.06.68 1.04.16 7.23 0 7.78c-.16.55-1.65.42-2.1.31S.76 17.33.84 15.84c0 0-.81-.15-.82-.79-.02-.65 0-3.02 0-3.02s.06-.62.78-.76c0 0-.2-1.71 1.55-2.25l1.3-.09zm19.78 0s-.65.06-.68 1.04c-.03.97-.16 7.23 0 7.78.16.55 1.65.42 2.1.31s1.47-.73 1.39-2.22c0 0 .81-.15.82-.79.02-.65 0-3.02 0-3.02s-.06-.62-.78-.76c0 0 .2-1.71-1.55-2.25l-1.3-.09z"/><path d="M25.1 11.74l-.99-.27c.13-.5-.42-3.86-2.67-6.7-2.03-2.56-4.74-3.82-8.05-3.76-3.55.09-6.32 1.56-8.24 4.36C3.71 7.5 3.31 9.64 3.31 9.66L2.3 9.49c.02-.09.42-2.35 1.98-4.66C5.74 2.69 8.49.11 13.37 0c3.63-.08 6.71 1.38 8.92 4.2 2.34 3 3.04 6.69 2.81 7.54zm-12.83 12.2c-2.5-.04-4.84-1.15-6.76-3.21-1.44-1.54-2.13-3.05-2.16-3.12l.78-.35-.39.18.39-.18c.01.01.68 1.47 2.03 2.91 1.78 1.9 3.84 2.88 6.13 2.92l-.02.85z"/><path d="M11.53 23.4s.41-1.12 2.02-.99 1.63 1.42 1.39 1.79c-.24.37-1.15 1.21-2.65.6-1.01-.48-.76-1.4-.76-1.4zm5.86-16.9c-4.4-2.97-10.12.22-10.77 4.46-.64 4.24 1.46 6.15 3.72 7.76 2.26 1.62 3.2 2.75 3.2 2.75.75-1.19 2.68-2.17 5.08-4.22s3.17-7.77-1.23-10.75zm-7.25 7.03a1.005 1.005 0 111.01-1c-.01.55-.46 1-1.01 1zm3.4 0c-.55 0-1.01-.45-1.01-1 0-.56.46-1.01 1.01-1.01a1.005 1.005 0 110 2.01zm3.44 0a1.005 1.005 0 110-2.01c.56 0 1.01.45 1.01 1.01-.01.55-.46 1-1.01 1z"/></svg>